<svg version="1.1" id="Layer_1" xmlns="http://www.w3.org/2000/svg" xmlns:xlink="http://www.w3.org/1999/xlink" x="0px" y="0px"
	 width="204.5px" height="173.38px" viewBox="0 299.663 204.5 173.38" enable-background="new 0 299.663 204.5 173.38"
	 xml:space="preserve">
<path fill="#010101" fill-opacity="0.05" d="M137.584,400.908c-7.979,0-14.453,8.949-14.453,19.997c0,11.049,6.473,20.002,14.453,20.002
	c7.977,0,14.444-8.953,14.444-20.002C152.029,409.857,145.56,400.908,137.584,400.908z M187.889,348.858
	c1.646-4.06,1.728-27.12-7.046-49.195c0,0-20.133,2.208-50.592,23.108c-6.383-1.762-17.196-2.645-28.001-2.645
	c-10.806,0-21.613,0.882-28.003,2.645c-30.459-20.9-50.585-23.106-50.585-23.106c-8.775,22.074-8.698,45.136-7.051,49.194
	C6.3,360.056,0,373.5,0,391.872c0,79.871,66.26,81.15,82.987,81.15c3.786,0,11.31,0.01,19.263,0.021
	c7.953-0.012,15.482-0.021,19.263-0.021c16.726,0,82.987-1.28,82.987-81.15C204.5,373.5,198.201,360.056,187.889,348.858z
	 M102.563,463.205h-0.625c-41.92,0-74.565-5.006-74.565-45.745c0-9.756,3.444-18.817,11.624-26.335
	c13.65-12.527,36.736-5.893,62.941-5.893c0.1,0,0.207-0.002,0.313-0.006c0.109,0.004,0.214,0.006,0.313,0.006
	c26.205,0,49.299-6.633,62.941,5.893c8.181,7.518,11.624,16.579,11.624,26.335C177.128,458.199,144.483,463.205,102.563,463.205z
	 M66.916,400.908c-7.976,0-14.443,8.949-14.443,19.997c0,11.049,6.468,20.002,14.443,20.002c7.984,0,14.453-8.953,14.453-20.002
	C81.367,409.857,74.898,400.908,66.916,400.908z"/>
</svg>
